<svg xmlns="http://www.w3.org/2000/svg" viewBox="0 0 438 438"><defs><style>.cls-1{fill:#1875fb;}.cls-2{fill:#8ed6ec;}.cls-3{fill:#4290fc;}.cls-4{fill:#ebf5f7;}.cls-5{fill:#f6706d;}.cls-6{fill:#7d8285;}.cls-7{fill:#fff;}</style></defs><title>wru</title><g id="Layer_2" data-name="Layer 2"><g id="Layer_1-2" data-name="Layer 1"><path class="cls-1" d="M66.41,376.09c86.77,84.28,225.41,82.26,309.68-4.5L61.91,66.41C-22.36,153.18-20.35,291.82,66.41,376.09Z"/><path class="cls-2" d="M371.59,61.91c-86.76-84.27-225.41-82.26-309.68,4.5L376.09,371.59C460.37,284.83,458.35,146.18,371.59,61.91Z"/><path class="cls-3" d="M219,52A167,167,0,0,0,52,219H386A167,167,0,0,0,219,52Z"/><path class="cls-4" d="M52,219H219V52A167,167,0,0,0,52,219Z"/><path class="cls-5" d="M219,386A167,167,0,0,0,386,219H52A167,167,0,0,0,219,386Z"/><path class="cls-6" d="M386,219H219V386A167,167,0,0,0,386,219Z"/><circle class="cls-7" cx="218.59" cy="218.59" r="108.41"/></g></g></svg>